<svg id="svg" version="1.1" xmlns="http://www.w3.org/2000/svg" xmlns:xlink="http://www.w3.org/1999/xlink" width="400" height="395.99555061179086" viewBox="0, 0, 400,395.99555061179086"><g id="svgg"><path id="path0" d="M60.193 1.891 C 58.982 2.753,17.361 36.491,5.493 46.230 L 1.373 49.611 9.737 58.065 C 28.968 77.503,37.196 92.532,41.889 116.796 C 42.823 121.626,42.699 135.854,41.681 140.601 C 39.704 149.818,36.408 157.994,26.248 178.884 C 16.009 199.935,10.290 213.366,8.037 221.647 C 7.548 223.445,6.933 225.617,6.670 226.474 C 1.169 244.412,2.375 267.757,9.498 281.201 C 23.147 306.967,48.160 323.503,111.457 348.604 C 142.423 360.883,148.966 363.619,161.641 369.582 C 175.122 375.926,187.580 383.364,195.506 389.803 C 197.439 391.374,199.499 393.031,200.083 393.486 L 201.145 394.314 203.465 392.137 C 217.047 379.392,236.707 369.436,290.768 347.927 C 339.767 328.431,358.022 318.437,375.246 301.677 C 392.790 284.605,398.274 271.722,397.657 249.037 C 397.129 229.647,392.340 214.679,375.798 180.723 C 356.987 142.109,355.009 132.342,361.077 108.046 C 366.061 88.094,374.322 74.004,391.155 56.748 L 398.551 49.166 373.205 28.921 C 359.265 17.786,345.897 7.058,343.499 5.079 L 339.139 1.483 276.948 1.186 C 242.744 1.023,180.297 0.890,138.178 0.890 L 61.599 0.890 60.193 1.891 M322.358 5.977 C 323.337 6.055,327.253 6.144,331.059 6.174 L 337.981 6.229 343.295 10.579 C 346.218 12.971,355.818 20.617,364.627 27.570 C 373.437 34.522,383.206 42.294,386.336 44.842 L 392.026 49.473 385.891 55.775 C 368.331 73.812,358.558 92.971,354.627 117.062 C 351.462 136.458,354.253 146.574,374.073 187.542 C 404.151 249.716,400.221 280.050,358.191 310.114 C 342.634 321.242,327.318 328.601,282.612 346.428 C 237.455 364.435,220.698 372.779,204.841 385.153 L 200.774 388.326 197.718 385.878 C 182.802 373.931,165.935 365.540,120.133 347.279 C 90.718 335.551,81.082 331.509,71.209 326.756 C 34.132 308.908,12.483 287.488,8.595 264.806 C 4.955 243.568,10.077 222.482,27.682 186.228 C 40.344 160.153,43.063 153.618,45.619 143.110 C 52.240 115.890,40.156 82.470,14.203 56.230 L 7.988 49.946 11.669 46.854 C 13.694 45.154,22.558 37.976,31.368 30.903 C 40.178 23.831,50.890 15.165,55.172 11.646 L 62.959 5.248 191.769 5.541 C 262.614 5.703,321.379 5.899,322.358 5.977 M102.656 10.570 L 65.380 10.684 45.482 26.559 C 34.538 35.291,23.528 44.119,21.014 46.177 L 16.445 49.919 20.124 53.886 C 36.555 71.601,44.075 84.513,48.732 103.003 C 55.906 131.486,53.797 143.173,33.918 185.095 C 23.836 206.356,20.689 213.750,17.445 223.804 C 4.393 264.255,16.898 290.917,60.340 315.267 C 73.373 322.572,87.193 328.700,121.468 342.372 C 165.040 359.752,182.691 368.300,195.940 378.436 C 197.848 379.896,199.781 381.358,200.237 381.685 C 200.974 382.214,201.458 381.979,204.677 379.529 C 218.865 368.729,234.824 360.894,278.989 343.046 C 347.762 315.255,370.306 300.857,382.252 277.097 C 393.399 254.928,389.963 234.058,367.289 186.207 C 351.569 153.033,348.590 143.724,348.635 127.920 C 348.711 100.751,358.834 76.771,379.295 55.287 C 381.915 52.536,383.992 50.102,383.909 49.877 C 383.741 49.420,371.069 39.110,357.057 28.031 C 351.950 23.993,344.872 18.323,341.327 15.429 L 334.883 10.169 237.408 10.313 C 183.797 10.392,123.159 10.507,102.656 10.570 M199.674 70.362 L 199.555 80.596 195.205 74.564 C 192.813 71.247,190.747 68.250,190.614 67.903 C 190.481 67.557,192.438 60.921,194.964 53.158 L 199.555 39.043 199.674 49.586 C 199.740 55.384,199.740 64.733,199.674 70.362 M206.000 55.326 L 210.101 67.715 208.631 69.786 C 207.823 70.926,205.900 73.540,204.359 75.596 L 201.557 79.335 201.557 60.950 C 201.557 50.839,201.634 42.649,201.728 42.751 C 201.822 42.853,203.744 48.512,206.000 55.326 M100.846 74.082 C 100.506 82.810,98.207 91.440,93.438 101.891 C 92.154 104.705,90.225 108.994,89.151 111.421 C 87.513 115.123,86.716 116.315,84.200 118.818 C 82.551 120.459,80.431 123.078,79.490 124.639 L 77.779 127.475 78.064 124.712 C 79.153 114.161,84.461 99.786,93.370 83.261 C 97.548 75.510,99.133 71.720,99.783 67.929 L 100.314 64.835 100.693 66.567 C 100.902 67.519,100.971 70.901,100.846 74.082 M302.093 73.415 C 302.626 74.761,305.139 79.769,307.676 84.545 C 315.961 100.135,319.116 108.331,321.663 120.871 C 322.972 127.317,322.882 128.026,321.136 125.030 C 320.352 123.685,318.233 121.037,316.427 119.146 C 312.985 115.544,311.452 112.663,305.471 98.554 C 300.663 87.210,298.307 74.483,299.624 66.963 L 300.014 64.739 300.569 67.853 C 300.874 69.566,301.560 72.069,302.093 73.415 M97.892 70.433 C 97.365 72.195,94.570 78.142,91.680 83.648 C 83.103 99.991,78.832 111.236,77.191 121.798 L 76.898 123.685 74.659 119.351 L 72.421 115.017 72.896 110.567 C 74.133 98.993,77.053 93.172,87.818 80.825 C 94.281 73.412,96.026 71.099,97.450 68.058 C 98.901 64.959,99.142 66.253,97.892 70.433 M305.775 72.747 C 306.877 74.216,310.079 78.044,312.891 81.254 C 326.548 96.847,330.656 109.429,325.473 119.784 C 324.372 121.984,323.467 123.613,323.464 123.405 C 323.347 117.062,317.651 101.127,310.685 87.653 C 302.833 72.466,301.662 69.751,301.673 66.771 C 301.676 65.847,301.877 66.054,302.725 67.853 C 303.301 69.077,304.674 71.279,305.775 72.747 M193.377 74.578 C 195.623 77.731,197.417 80.359,197.365 80.416 C 197.215 80.581,163.107 69.365,162.759 69.037 C 162.587 68.875,168.488 68.766,175.871 68.793 L 189.294 68.844 193.377 74.578 M242.010 68.689 C 241.908 68.781,234.116 71.295,224.694 74.276 C 215.273 77.256,206.388 80.092,204.950 80.578 C 201.533 81.732,201.423 82.113,206.600 74.874 L 211.123 68.547 226.659 68.534 C 235.204 68.527,242.112 68.596,242.010 68.689 M178.957 75.902 C 189.711 79.473,198.439 82.465,198.353 82.552 C 198.074 82.831,184.095 87.208,183.484 87.208 C 183.070 87.208,161.548 71.775,158.880 69.564 C 158.314 69.095,161.141 69.987,178.957 75.902 M238.471 71.789 C 238.113 72.118,233.280 75.712,227.730 79.777 L 217.641 87.167 211.092 84.973 C 207.491 83.766,204.458 82.693,204.352 82.587 C 204.247 82.482,210.733 80.263,218.766 77.656 C 226.798 75.049,234.472 72.536,235.818 72.072 C 238.758 71.057,239.335 70.995,238.471 71.789 M210.011 86.238 L 217.353 88.765 222.127 103.197 C 224.753 111.135,226.842 117.689,226.769 117.762 C 226.696 117.835,225.728 116.647,224.619 115.121 C 216.037 103.319,202.557 84.658,202.284 84.205 C 201.813 83.420,201.861 83.433,210.011 86.238 M196.564 85.984 C 195.962 86.780,194.687 88.532,193.730 89.878 C 192.774 91.224,191.750 92.625,191.456 92.992 C 190.973 93.595,187.372 98.520,178.754 110.364 C 177.102 112.634,175.751 114.326,175.751 114.123 C 175.751 113.920,176.631 111.035,177.707 107.711 C 178.783 104.388,180.610 98.731,181.766 95.141 L 183.868 88.614 187.707 87.441 C 189.819 86.796,192.647 85.895,193.993 85.439 C 197.530 84.239,197.836 84.304,196.564 85.984 M199.778 92.660 L 199.778 100.783 195.662 103.765 C 181.556 113.987,175.518 118.269,175.391 118.143 C 175.256 118.007,199.427 84.549,199.666 84.542 C 199.727 84.540,199.778 88.193,199.778 92.660 M213.049 101.446 C 218.653 109.155,223.178 115.532,223.105 115.618 C 223.032 115.704,218.155 112.300,212.267 108.054 L 201.561 100.334 201.582 92.992 C 201.601 86.544,201.680 85.759,202.232 86.541 C 202.577 87.030,207.445 93.737,213.049 101.446 M158.275 108.942 C 164.318 112.040,166.744 117.766,164.667 124.027 C 163.863 126.450,164.951 126.833,152.870 119.870 L 142.379 113.822 143.300 112.527 C 146.546 107.969,153.247 106.365,158.275 108.942 M150.067 108.552 C 148.278 108.977,146.846 109.903,145.077 111.779 L 143.703 113.237 144.704 114.060 C 145.677 114.862,145.716 114.862,146.156 114.060 C 146.404 113.607,147.751 112.086,149.149 110.679 C 150.547 109.271,151.649 108.141,151.597 108.166 C 151.544 108.191,150.856 108.365,150.067 108.552 M147.321 111.473 C 146.561 112.338,145.940 113.232,145.940 113.461 C 145.940 113.689,145.625 113.756,145.241 113.608 C 144.681 113.393,144.876 112.997,146.221 111.620 C 148.324 109.466,149.184 109.351,147.321 111.473 M63.773 112.091 C 66.397 116.055,66.882 118.585,67.091 129.406 C 67.197 134.873,67.109 139.521,66.895 139.735 C 66.378 140.252,61.766 139.162,60.241 138.163 L 59.047 137.380 59.321 132.583 C 59.472 129.945,60.130 125.213,60.783 122.069 C 61.435 118.924,61.992 115.002,62.019 113.352 C 62.077 109.858,62.225 109.751,63.773 112.091 M69.123 113.863 C 74.377 118.635,77.464 127.339,75.784 132.639 C 75.210 134.448,74.614 136.989,74.459 138.284 L 74.178 140.640 71.460 140.509 L 68.743 140.378 68.469 129.922 C 68.179 118.846,67.668 115.886,65.413 112.225 C 64.920 111.424,64.516 110.649,64.516 110.504 C 64.516 110.186,67.352 112.253,69.123 113.863 M335.074 111.943 C 332.601 116.135,332.220 118.320,332.019 129.477 C 331.809 141.104,331.972 140.584,328.533 140.594 L 326.255 140.601 325.953 138.322 C 325.786 137.069,325.172 134.536,324.587 132.694 C 322.576 126.362,326.659 117.008,333.687 111.849 C 336.206 110.000,336.219 110.001,335.074 111.943 M339.441 121.159 C 340.611 126.599,341.404 134.136,341.053 136.477 C 340.752 138.484,339.799 138.994,334.664 139.890 L 333.177 140.150 333.368 129.586 C 333.578 117.934,333.865 116.332,336.453 112.347 L 337.898 110.122 338.229 113.596 C 338.412 115.506,338.957 118.910,339.441 121.159 M95.160 113.408 C 94.824 113.869,93.603 115.541,92.445 117.122 C 87.970 123.238,84.344 131.531,83.228 138.203 L 82.699 141.367 79.503 141.173 C 74.966 140.896,75.197 141.121,75.878 137.629 C 78.002 126.745,83.836 118.706,93.211 113.745 C 95.859 112.344,95.946 112.329,95.160 113.408 M314.371 118.905 C 319.776 123.953,323.829 131.691,324.627 138.487 L 324.928 141.046 322.308 141.052 C 320.867 141.055,319.251 141.175,318.716 141.319 C 317.868 141.546,317.707 141.359,317.458 139.866 C 315.966 130.892,312.824 123.660,307.119 116.065 C 305.834 114.355,304.783 112.858,304.783 112.738 C 304.783 111.949,311.657 116.370,314.371 118.905 M95.431 117.353 C 95.142 118.760,94.768 123.815,94.599 128.587 C 94.431 133.359,94.175 138.215,94.030 139.377 L 93.767 141.491 88.930 141.491 C 83.314 141.491,83.627 141.916,85.001 136.151 C 86.778 128.698,88.961 124.083,93.998 117.130 C 96.090 114.242,96.070 114.239,95.431 117.353 M306.715 117.575 C 311.946 124.932,314.652 131.343,316.106 139.822 L 316.392 141.491 311.533 141.491 L 306.674 141.491 306.400 140.118 C 306.249 139.363,306.010 135.008,305.870 130.441 C 305.629 122.605,305.131 117.108,304.516 115.505 C 303.974 114.093,304.776 114.848,306.715 117.575 M172.314 132.628 C 198.669 147.839,201.678 149.467,202.570 148.998 C 203.114 148.712,216.551 140.986,232.429 131.830 C 249.259 122.125,261.464 115.346,261.695 115.577 C 261.925 115.807,249.560 123.173,232.046 133.238 L 202.002 150.505 202.002 190.491 C 202.002 216.853,201.851 230.478,201.557 230.478 C 201.264 230.478,201.112 216.839,201.112 190.451 L 201.112 150.423 195.884 147.364 C 189.393 143.566,163.089 128.338,150.726 121.220 C 145.650 118.298,141.496 115.735,141.494 115.525 C 141.488 114.859,142.490 115.415,172.314 132.628 M263.578 119.253 C 268.322 131.110,253.223 141.116,243.836 132.335 C 240.801 129.496,240.391 129.961,251.728 123.396 C 263.338 116.673,262.643 116.916,263.578 119.253 M261.000 118.935 C 260.219 119.505,260.224 119.597,261.130 121.373 C 261.648 122.388,262.228 124.276,262.418 125.569 L 262.764 127.920 263.361 125.819 C 264.431 122.050,262.889 117.553,261.000 118.935 M262.786 121.971 L 262.988 123.915 262.157 121.913 C 261.331 119.925,261.330 118.772,262.154 119.596 C 262.391 119.832,262.675 120.901,262.786 121.971 M61.012 139.957 C 65.740 141.637,77.448 142.537,101.224 143.049 C 108.076 143.197,116.359 143.512,119.631 143.748 L 125.580 144.179 127.591 145.950 C 128.698 146.923,129.875 147.720,130.207 147.720 C 130.871 147.720,132.592 149.276,132.592 149.877 C 132.592 150.084,127.436 150.374,121.135 150.522 C 114.833 150.669,103.971 151.114,96.997 151.512 C 65.818 153.288,60.635 151.876,58.918 141.138 C 58.574 138.990,58.463 139.052,61.012 139.957 M341.713 140.327 C 341.713 143.985,338.458 149.047,334.874 150.964 C 332.234 152.376,320.914 152.484,299.042 151.308 C 289.644 150.803,278.760 150.389,274.856 150.389 C 268.566 150.389,267.789 150.309,268.028 149.686 C 268.177 149.298,268.298 148.907,268.298 148.816 C 268.298 148.726,269.151 148.274,270.194 147.813 C 271.237 147.351,272.719 146.345,273.488 145.576 C 275.198 143.866,279.171 143.475,299.221 143.045 C 322.889 142.538,334.835 141.625,339.266 139.987 C 341.658 139.102,341.713 139.110,341.713 140.327 M129.700 141.475 C 134.397 142.330,139.268 142.426,152.716 141.928 C 179.115 140.951,181.245 141.833,181.384 153.800 C 181.471 161.274,181.957 162.733,185.007 164.667 C 188.293 166.751,194.187 167.377,198.776 166.130 C 199.707 165.878,199.778 166.000,199.778 167.868 L 199.778 169.878 197.491 170.427 C 192.679 171.581,186.187 170.361,182.637 167.636 C 178.669 164.590,178.229 163.488,177.962 155.951 C 177.574 145.017,177.244 144.880,155.951 146.849 C 137.411 148.563,131.352 148.111,128.005 144.764 C 125.902 142.661,125.023 140.368,126.479 140.785 C 127.027 140.941,128.476 141.252,129.700 141.475 M274.972 140.958 C 274.972 141.155,274.394 142.228,273.688 143.342 C 270.617 148.184,266.184 148.708,244.439 146.803 C 223.669 144.982,222.272 145.503,222.485 154.988 C 222.635 161.647,222.565 162.105,221.065 164.370 C 218.465 168.295,213.024 170.857,207.284 170.857 C 203.688 170.857,203.337 170.645,203.337 168.473 L 203.338 166.630 207.453 166.613 C 216.638 166.576,219.050 164.002,219.115 154.167 C 219.198 141.821,221.254 140.945,247.831 141.935 C 261.787 142.455,270.051 142.177,272.758 141.097 C 274.137 140.546,274.972 140.494,274.972 140.958 M175.589 148.387 C 176.211 149.232,176.147 149.296,174.329 149.645 C 173.276 149.847,169.210 150.925,165.295 152.040 C 147.865 157.006,143.861 157.466,139.030 155.053 C 136.669 153.874,133.472 150.450,133.484 149.115 C 133.486 148.960,137.240 148.793,141.827 148.746 C 146.414 148.699,152.870 148.364,156.174 148.003 C 165.084 147.028,174.730 147.219,175.589 148.387 M246.058 148.160 C 251.561 148.647,258.519 149.047,261.522 149.050 L 266.981 149.055 266.126 150.723 C 262.518 157.759,255.817 158.095,236.095 152.232 C 232.700 151.222,228.659 150.176,227.115 149.907 C 224.924 149.526,224.364 149.273,224.563 148.754 C 225.229 147.018,231.270 146.851,246.058 148.160 M66.717 152.660 C 68.409 153.166,68.461 153.247,69.797 157.461 C 70.544 159.819,72.148 163.697,73.361 166.080 C 74.574 168.462,75.464 170.412,75.338 170.412 C 75.212 170.412,74.578 170.036,73.929 169.577 C 73.279 169.118,71.140 167.937,69.175 166.952 L 65.602 165.161 64.630 162.336 C 63.699 159.630,61.777 152.856,61.208 150.274 L 60.937 149.046 62.967 150.595 C 64.083 151.447,65.771 152.376,66.717 152.660 M338.628 152.530 C 338.349 153.677,337.389 156.984,336.496 159.878 L 334.872 165.139 332.175 166.410 C 330.691 167.109,328.399 168.328,327.080 169.118 C 325.762 169.909,324.768 170.373,324.872 170.150 C 324.975 169.927,326.121 167.616,327.419 165.014 C 328.716 162.413,330.222 158.744,330.765 156.861 L 331.753 153.437 334.369 152.374 C 335.807 151.790,337.396 150.899,337.900 150.396 C 339.061 149.235,339.276 149.866,338.628 152.530 M176.641 153.695 L 176.641 156.555 174.082 157.294 C 172.675 157.701,168.992 159.214,165.898 160.658 C 154.862 165.808,147.580 165.573,143.706 159.943 C 141.968 157.415,141.894 157.510,145.606 157.501 C 149.609 157.491,152.785 156.826,163.515 153.751 C 173.262 150.958,173.277 150.954,175.195 150.886 L 176.641 150.834 176.641 153.695 M234.112 152.887 C 247.009 156.669,248.949 157.118,253.504 157.377 C 256.012 157.520,258.065 157.721,258.065 157.826 C 258.065 158.773,255.056 162.043,253.484 162.804 C 248.165 165.378,243.729 164.884,234.705 160.712 C 231.524 159.241,227.770 157.704,226.363 157.297 L 223.804 156.555 223.804 153.634 L 223.804 150.712 226.214 150.995 C 227.539 151.151,231.093 152.002,234.112 152.887 M134.709 153.363 C 135.625 154.388,137.155 155.609,138.110 156.078 L 139.847 156.930 135.886 157.243 C 133.707 157.416,128.320 158.048,123.915 158.649 C 96.889 162.335,94.943 162.549,88.098 162.587 C 81.342 162.624,81.147 162.599,78.551 161.326 C 74.942 159.556,70.745 155.520,70.745 153.819 C 70.745 153.723,75.400 153.519,81.090 153.365 C 86.780 153.211,96.941 152.779,103.671 152.404 C 119.291 151.535,122.407 151.415,128.258 151.463 L 133.045 151.502 134.709 153.363 M296.774 152.419 C 303.259 152.776,313.320 153.198,319.132 153.357 C 330.594 153.670,330.370 153.602,328.543 156.237 C 325.245 160.996,319.740 163.050,311.235 162.695 C 305.083 162.439,302.819 162.178,280.089 159.116 C 273.726 158.259,266.736 157.416,264.556 157.243 L 260.591 156.929 262.608 155.904 C 263.718 155.340,265.177 154.219,265.852 153.413 C 267.847 151.027,270.119 150.954,296.774 152.419 M75.149 163.829 C 75.844 168.039,75.642 167.987,73.534 163.410 C 70.786 157.445,70.705 156.916,72.860 158.986 C 74.420 160.485,74.691 161.060,75.149 163.829 M141.384 158.918 C 141.810 159.449,142.923 160.738,143.859 161.784 L 145.560 163.685 143.859 163.970 C 142.923 164.127,134.722 165.744,125.633 167.563 C 100.494 172.595,95.435 172.589,87.785 167.516 C 83.587 164.732,83.777 164.357,89.562 163.994 C 95.408 163.627,100.540 163.018,118.354 160.578 C 125.573 159.589,133.382 158.622,135.706 158.429 C 138.031 158.236,140.085 158.050,140.271 158.016 C 140.457 157.981,140.958 158.387,141.384 158.918 M176.685 159.622 C 176.709 160.539,176.872 161.791,177.047 162.403 C 177.340 163.430,177.125 163.635,174.221 165.094 C 172.493 165.963,169.586 167.564,167.760 168.654 C 162.310 171.906,157.169 171.367,153.083 167.114 L 151.550 165.517 154.003 165.517 C 157.237 165.517,160.168 164.612,166.630 161.618 C 171.721 159.259,174.871 158.048,176.085 157.983 C 176.429 157.965,176.658 158.590,176.685 159.622 M231.146 160.485 C 239.720 164.366,242.122 165.190,245.524 165.419 L 248.778 165.638 247.304 167.174 C 242.877 171.783,237.804 171.947,231.074 167.696 C 229.196 166.511,226.608 165.105,225.323 164.572 C 223.155 163.674,223.017 163.527,223.396 162.529 C 223.620 161.938,223.804 160.651,223.804 159.669 C 223.804 157.421,224.561 157.505,231.146 160.485 M265.851 158.604 C 268.053 158.762,275.562 159.676,282.536 160.634 C 298.959 162.889,305.256 163.631,311.123 164.002 C 316.605 164.348,316.685 164.436,313.683 166.809 C 306.221 172.707,300.954 172.774,273.637 167.316 C 265.195 165.629,257.502 164.118,256.543 163.959 L 254.799 163.669 255.927 162.702 C 256.547 162.170,257.523 161.034,258.094 160.178 C 259.377 158.256,259.737 158.001,260.915 158.177 C 261.427 158.253,263.648 158.445,265.851 158.604 M328.063 160.733 C 326.887 163.627,324.888 167.742,324.658 167.742 C 323.786 167.742,325.916 160.638,327.145 159.446 C 329.210 157.442,329.331 157.612,328.063 160.733 M81.869 163.730 C 83.172 163.757,84.453 166.574,85.412 171.524 C 85.933 174.216,86.534 176.819,86.747 177.308 C 88.165 180.571,87.586 180.852,84.965 178.172 C 83.874 177.056,81.943 175.340,80.675 174.359 C 78.268 172.496,77.639 170.882,76.337 163.226 L 76.061 161.603 78.631 162.659 C 80.045 163.241,81.502 163.722,81.869 163.730 M324.081 162.959 C 322.920 169.493,322.010 172.283,320.646 173.494 C 319.875 174.178,317.865 175.974,316.180 177.483 C 312.705 180.597,312.511 180.628,313.412 177.924 C 313.769 176.851,314.500 173.871,315.037 171.301 C 316.192 165.763,317.187 164.160,319.982 163.327 C 321.044 163.011,322.414 162.481,323.026 162.150 C 323.637 161.819,324.183 161.540,324.238 161.531 C 324.293 161.521,324.223 162.164,324.081 162.959 M151.712 167.402 C 153.506 169.341,153.752 169.795,153.136 170.039 C 151.336 170.753,129.843 177.132,127.030 177.788 C 120.370 179.341,111.587 177.979,106.118 174.546 L 103.448 172.870 105.673 172.502 C 111.417 171.552,120.339 169.852,129.477 167.968 C 148.632 164.017,148.581 164.018,151.712 167.402 M264.294 166.649 C 268.576 167.462,276.485 169.019,281.869 170.109 C 287.253 171.199,292.848 172.233,294.304 172.407 L 296.950 172.722 295.861 173.600 C 288.294 179.702,279.195 179.872,261.174 174.249 C 256.160 172.684,250.793 171.050,249.248 170.619 L 246.439 169.833 248.581 167.634 C 251.942 164.182,251.454 164.212,264.294 166.649 M179.608 166.480 L 181.060 167.887 178.112 170.596 C 174.212 174.179,173.913 174.371,171.522 174.817 C 168.920 175.303,166.207 174.708,164.261 173.224 L 162.765 172.083 164.934 171.348 C 166.127 170.945,168.484 169.742,170.173 168.675 C 176.382 164.754,177.547 164.483,179.608 166.480 M225.806 166.131 C 227.030 166.708,229.520 168.106,231.340 169.236 C 233.161 170.367,235.322 171.419,236.144 171.573 C 239.291 172.163,234.950 174.950,230.883 174.950 C 227.648 174.950,226.336 174.295,222.524 170.780 L 219.482 167.975 220.851 166.524 C 222.481 164.796,222.907 164.762,225.806 166.131 M67.095 167.309 C 82.335 174.450,95.518 188.955,106.667 210.847 C 110.951 219.259,110.932 218.863,106.962 217.183 C 105.274 216.468,103.038 215.631,101.993 215.322 C 100.170 214.782,99.974 214.541,97.145 209.382 C 88.270 193.194,77.050 178.346,66.633 169.005 C 64.494 167.087,62.863 165.517,63.008 165.517 C 63.154 165.517,64.993 166.323,67.095 167.309 M332.933 169.763 C 322.313 179.717,311.487 194.169,303.221 209.427 L 300.558 214.341 295.444 216.370 C 292.632 217.486,290.267 218.335,290.189 218.257 C 289.929 217.998,296.403 205.411,299.121 200.890 C 306.996 187.791,316.480 177.456,326.585 170.960 C 328.823 169.522,336.646 165.517,337.219 165.517 C 337.353 165.517,335.424 167.428,332.933 169.763 M74.461 178.865 C 82.349 187.889,90.039 198.964,95.812 209.611 C 98.356 214.304,98.372 214.078,95.551 213.328 C 94.266 212.986,92.112 212.496,90.765 212.240 C 84.859 211.114,74.801 196.124,66.976 176.785 L 63.344 167.807 66.666 170.778 C 68.493 172.412,72.001 176.051,74.461 178.865 M86.889 168.521 C 86.987 168.704,86.935 169.355,86.772 169.967 C 86.488 171.034,86.467 171.020,86.252 169.633 C 86.050 168.332,86.432 167.666,86.889 168.521 M313.720 170.552 C 313.373 170.899,313.237 170.717,313.237 169.907 C 313.237 168.440,313.860 167.813,314.053 169.086 C 314.135 169.627,313.985 170.286,313.720 170.552 M333.645 176.200 C 327.552 191.456,324.603 196.668,316.651 206.229 C 313.016 210.600,311.920 211.640,310.610 211.964 C 304.312 213.521,302.558 213.894,302.558 213.673 C 302.558 212.107,312.577 195.875,318.081 188.522 C 324.053 180.545,335.923 167.588,336.620 168.284 C 336.693 168.358,335.355 171.920,333.645 176.200 M184.191 170.012 C 186.366 171.145,186.360 170.999,184.335 173.250 C 180.797 177.184,178.800 177.935,174.871 176.810 L 172.433 176.112 173.823 175.527 C 174.587 175.206,176.651 173.623,178.409 172.010 C 182.038 168.680,181.796 168.763,184.191 170.012 M221.773 171.752 C 223.306 173.224,225.338 174.806,226.289 175.269 L 228.018 176.110 225.577 176.809 C 221.535 177.966,218.546 176.600,215.310 172.118 L 214.454 170.933 216.126 170.063 C 218.578 168.787,218.734 168.834,221.773 171.752 M93.008 171.247 L 96.361 172.364 97.566 178.561 C 99.551 188.767,103.336 198.704,111.264 214.520 C 112.746 217.476,113.859 219.993,113.739 220.114 C 113.199 220.653,112.344 219.298,108.994 212.594 C 103.219 201.038,98.509 193.502,92.517 186.232 C 88.843 181.774,88.146 179.666,88.114 172.922 C 88.099 169.753,88.171 169.459,88.877 169.778 C 89.305 169.971,91.164 170.632,93.008 171.247 M312.180 174.305 C 311.753 181.097,311.482 181.919,308.482 185.482 C 302.141 193.015,296.877 201.353,291.393 212.547 C 288.113 219.243,287.245 220.653,286.723 220.131 C 286.612 220.019,288.246 216.345,290.355 211.966 C 298.681 194.679,301.671 186.339,303.439 175.475 L 303.954 172.307 306.705 171.555 C 308.217 171.141,309.956 170.522,310.567 170.178 C 312.428 169.133,312.495 169.304,312.180 174.305 M158.474 171.570 C 162.847 172.677,163.438 173.476,160.759 174.658 C 159.581 175.179,156.493 176.937,153.897 178.567 C 144.591 184.409,139.611 185.651,132.235 183.971 C 127.492 182.891,121.701 179.310,124.697 179.310 C 126.269 179.310,131.752 177.855,140.607 175.087 C 147.144 173.044,154.170 171.047,155.359 170.895 C 155.523 170.874,156.924 171.177,158.474 171.570 M247.720 171.525 C 249.250 171.886,255.056 173.592,260.623 175.316 C 266.190 177.041,272.100 178.686,273.755 178.973 C 277.314 179.589,277.322 179.894,273.833 181.831 C 266.039 186.157,257.982 185.499,248.721 179.779 C 246.151 178.192,242.600 176.165,240.828 175.274 C 237.079 173.390,237.207 172.784,241.602 171.618 C 244.809 170.768,244.525 170.772,247.720 171.525 M191.611 172.330 C 192.765 173.484,189.156 178.301,186.726 178.849 C 183.631 179.547,180.243 178.430,181.911 177.262 C 182.455 176.881,183.645 175.749,184.554 174.746 C 187.746 171.227,187.505 171.374,189.511 171.740 C 190.527 171.926,191.472 172.192,191.611 172.330 M198.002 173.801 C 197.013 178.371,195.152 180.243,191.675 180.169 C 188.930 180.110,188.429 179.644,189.925 178.538 C 190.681 177.979,191.567 176.666,192.018 175.436 C 193.057 172.605,193.387 172.308,195.996 171.850 C 198.733 171.370,198.564 171.206,198.002 173.801 M216.034 174.728 C 219.421 178.238,219.558 178.764,217.130 178.926 C 212.648 179.223,210.531 177.912,209.193 174.010 C 208.577 172.213,208.622 172.148,210.785 171.728 C 211.705 171.550,212.519 171.381,212.593 171.353 C 212.667 171.324,214.215 172.843,216.034 174.728 M207.157 172.670 C 207.423 172.889,207.918 173.910,208.257 174.939 C 208.597 175.967,209.529 177.463,210.328 178.263 L 211.782 179.717 210.186 180.016 C 206.006 180.800,203.337 178.679,203.337 174.572 L 203.337 171.647 205.006 171.959 C 205.923 172.131,206.891 172.450,207.157 172.670 M199.645 183.151 C 199.348 183.448,195.389 181.923,194.887 181.318 C 194.507 180.859,194.585 180.658,195.226 180.455 C 197.019 179.886,198.456 177.748,199.012 174.823 L 199.555 171.969 199.680 177.479 C 199.749 180.510,199.733 183.062,199.645 183.151 M103.257 174.011 C 104.096 174.768,105.728 175.869,106.883 176.459 L 108.982 177.531 111.198 184.539 C 114.838 196.051,115.733 199.711,116.395 205.784 C 117.085 212.124,118.504 217.744,120.557 222.272 C 121.289 223.885,121.738 225.140,121.555 225.061 C 121.372 224.981,120.090 224.216,118.706 223.359 L 116.189 221.802 110.817 210.606 C 102.637 193.562,97.887 179.838,97.887 173.255 C 97.887 171.973,101.570 172.492,103.257 174.011 M302.292 174.527 C 301.339 181.023,298.989 189.257,295.971 196.670 C 292.658 204.808,284.172 221.946,283.225 222.412 C 282.724 222.658,281.466 223.382,280.431 224.020 L 278.548 225.180 280.099 221.557 C 282.194 216.663,283.408 211.678,283.880 206.037 C 284.304 200.964,286.050 193.985,289.483 183.635 L 291.518 177.504 293.590 176.439 C 294.729 175.853,296.363 174.766,297.219 174.023 C 298.416 172.985,299.215 172.668,300.673 172.654 L 302.569 172.636 302.292 174.527 M165.671 175.528 C 166.550 175.895,168.042 176.196,168.988 176.196 C 171.380 176.196,171.482 176.517,169.601 178.108 C 168.701 178.869,166.563 180.824,164.850 182.451 C 159.116 187.900,151.862 189.378,145.495 186.395 L 143.048 185.249 145.391 184.466 C 146.680 184.035,150.385 182.072,153.623 180.103 C 162.437 174.745,163.148 174.474,165.671 175.528 M240.267 176.330 C 241.858 177.131,245.161 179.019,247.608 180.525 C 250.056 182.031,253.247 183.718,254.701 184.273 L 257.343 185.283 254.923 186.389 C 247.906 189.598,241.654 188.089,234.640 181.494 C 232.061 179.069,229.758 177.086,229.521 177.086 C 229.285 177.086,229.215 176.885,229.366 176.641 C 229.517 176.396,230.480 176.187,231.506 176.176 C 232.531 176.165,233.971 175.881,234.705 175.544 C 236.639 174.659,237.068 174.720,240.267 176.330 M176.863 178.352 C 180.838 178.826,181.033 179.091,178.994 181.253 C 178.040 182.265,176.282 184.269,175.087 185.708 C 170.777 190.897,166.216 191.966,159.809 189.289 L 158.187 188.611 160.628 187.281 C 161.971 186.549,164.572 184.488,166.407 182.701 C 170.884 178.341,172.175 177.413,173.287 177.755 C 173.786 177.909,175.395 178.177,176.863 178.352 M229.156 178.275 C 229.761 178.685,231.985 180.671,234.098 182.690 C 236.211 184.709,238.914 186.861,240.104 187.472 L 242.269 188.584 240.607 189.290 C 234.396 191.926,229.575 190.827,225.528 185.851 C 224.493 184.578,222.757 182.606,221.671 181.467 C 219.392 179.078,219.754 178.449,223.441 178.389 C 224.497 178.372,225.762 178.186,226.251 177.976 C 227.560 177.413,227.940 177.453,229.156 178.275 M205.562 180.887 C 205.562 181.209,204.130 182.425,203.750 182.425 C 203.523 182.425,203.337 181.720,203.337 180.857 L 203.337 179.290 204.449 180.019 C 205.061 180.420,205.562 180.810,205.562 180.887 M188.143 180.689 C 189.865 181.289,190.103 180.565,186.318 186.253 C 181.983 192.768,178.495 194.433,173.036 192.594 C 170.330 191.682,170.230 191.329,172.302 190.011 C 173.342 189.349,174.977 187.822,175.934 186.617 C 181.088 180.133,183.370 179.025,188.143 180.689 M220.731 182.314 C 221.837 183.476,223.660 185.535,224.783 186.890 C 225.906 188.245,227.547 189.742,228.429 190.217 C 230.468 191.315,230.444 191.491,228.128 192.376 C 222.672 194.459,218.537 192.930,215.049 187.541 C 213.782 185.584,212.307 183.422,211.771 182.737 C 210.690 181.354,210.699 181.314,212.252 180.694 C 215.371 179.449,218.591 180.064,220.731 182.314 M193.993 182.202 C 194.568 182.814,195.254 183.318,195.517 183.322 C 198.359 183.362,193.094 192.385,189.005 194.482 C 186.989 195.515,183.752 195.577,181.895 194.617 L 180.519 193.905 182.251 192.941 C 183.523 192.233,184.880 190.630,187.370 186.894 C 190.290 182.513,191.432 181.275,192.692 181.121 C 192.833 181.104,193.419 181.591,193.993 182.202 M208.814 181.503 C 209.430 181.737,210.818 183.326,212.021 185.174 C 213.187 186.966,214.652 189.199,215.276 190.136 C 215.900 191.073,217.172 192.275,218.102 192.806 C 220.158 193.979,220.193 194.214,218.399 194.840 C 214.742 196.114,210.705 194.930,208.370 191.897 C 206.852 189.926,203.240 184.143,203.430 183.987 C 203.501 183.928,204.060 183.621,204.672 183.304 C 205.284 182.988,206.046 182.360,206.366 181.909 C 207.029 180.975,207.305 180.929,208.814 181.503 M199.678 191.405 L 199.801 197.865 195.930 196.831 C 191.144 195.553,190.806 195.258,192.303 193.663 C 192.937 192.988,194.299 191.034,195.331 189.321 C 199.190 182.916,199.520 183.074,199.678 191.405 M208.432 193.975 C 209.701 195.028,208.994 195.571,205.006 196.604 L 203.337 197.036 203.337 191.640 L 203.337 186.244 205.540 189.824 C 206.752 191.792,208.053 193.661,208.432 193.975 M128.290 201.944 C 138.745 213.432,141.430 217.925,141.687 224.363 C 141.802 227.256,142.191 229.521,142.967 231.833 C 143.579 233.657,144.014 235.218,143.933 235.301 C 143.318 235.927,130.599 219.207,127.208 213.314 C 122.181 204.578,117.629 189.376,121.504 194.266 C 122.258 195.217,125.312 198.673,128.290 201.944 M279.859 196.087 C 277.849 206.917,269.614 221.007,257.676 234.038 L 255.842 236.040 256.658 234.038 C 257.989 230.773,258.541 227.941,258.552 224.322 C 258.569 218.536,261.780 213.269,272.399 201.611 C 275.435 198.278,278.393 194.902,278.972 194.110 C 280.379 192.186,280.523 192.507,279.859 196.087 M120.400 200.802 C 122.485 208.432,127.960 218.127,135.313 227.209 C 141.142 234.408,146.622 240.708,147.056 240.710 C 147.304 240.711,147.772 241.139,148.098 241.660 C 148.648 242.541,148.616 242.590,147.645 242.346 C 147.070 242.202,144.756 241.766,142.502 241.377 L 138.403 240.669 130.951 233.241 C 119.370 221.697,115.786 211.070,118.241 195.551 L 118.522 193.771 118.926 195.328 C 119.148 196.185,119.811 198.648,120.400 200.802 M282.115 194.772 C 282.128 195.200,282.314 197.152,282.528 199.110 C 283.781 210.585,279.312 224.332,272.430 230.167 C 270.468 231.832,267.441 234.849,265.704 236.872 L 262.545 240.551 258.170 241.317 C 255.764 241.738,253.334 242.203,252.772 242.351 C 251.822 242.599,251.791 242.550,252.344 241.665 C 252.671 241.141,253.141 240.699,253.388 240.683 C 254.378 240.619,267.418 224.556,271.601 218.249 C 276.543 210.798,280.395 201.849,281.053 196.291 C 281.308 194.136,282.062 193.057,282.115 194.772 M199.778 218.040 L 199.778 230.519 198.109 230.225 C 183.160 227.595,184.232 207.833,199.444 205.610 C 199.627 205.584,199.778 211.177,199.778 218.040 M91.349 213.618 C 108.093 217.079,126.919 228.075,134.879 239.043 L 135.767 240.267 131.595 240.267 L 127.424 240.267 123.863 236.819 C 115.535 228.755,103.488 221.217,89.210 215.134 C 86.518 213.987,84.232 212.966,84.131 212.865 C 83.657 212.395,87.238 212.768,91.349 213.618 M316.314 212.844 C 316.212 212.934,314.127 213.854,311.680 214.888 C 297.587 220.842,284.908 228.742,276.464 236.830 L 272.839 240.302 268.681 240.173 L 264.523 240.044 267.162 237.152 C 278.217 225.037,294.082 216.281,310.323 213.331 C 313.354 212.780,316.695 212.509,316.314 212.844 M87.222 215.604 C 101.216 221.501,113.729 229.111,122.247 236.907 C 125.767 240.128,125.887 239.905,120.132 240.838 L 115.237 241.632 110.900 239.821 C 100.280 235.386,93.935 230.277,87.968 221.357 C 86.495 219.155,84.703 216.602,83.987 215.684 C 82.384 213.632,82.534 213.628,87.222 215.604 M317.241 214.209 C 317.241 214.316,315.393 217.069,313.134 220.327 C 306.209 230.317,300.443 235.126,290.168 239.480 L 285.060 241.645 281.050 240.956 C 278.845 240.577,276.537 240.267,275.923 240.267 L 274.806 240.267 276.113 238.873 C 282.788 231.755,296.724 222.808,310.790 216.612 C 316.473 214.108,317.241 213.822,317.241 214.209 M145.600 221.806 C 148.796 230.022,155.307 236.347,172.859 248.287 C 188.410 258.865,191.023 261.073,190.804 263.450 L 190.656 265.054 186.874 264.263 C 160.172 258.676,139.090 236.390,143.580 218.498 C 143.897 217.235,143.689 216.894,145.600 221.806 M257.232 224.027 C 257.262 240.957,236.761 259.636,212.903 264.417 L 209.789 265.042 209.649 263.524 C 209.429 261.143,212.010 258.889,225.584 249.608 C 240.383 239.490,244.646 236.099,249.033 230.957 C 251.769 227.751,255.840 220.563,255.840 218.939 C 255.840 218.515,255.986 218.022,256.164 217.844 C 256.756 217.253,257.225 219.971,257.232 224.027 M153.867 223.762 C 155.747 224.707,160.289 226.820,163.960 228.457 C 172.638 232.328,177.456 234.936,181.386 237.892 C 189.396 243.915,194.199 251.739,191.777 254.818 C 191.188 255.567,190.879 256.627,190.879 257.902 L 190.879 259.845 186.986 256.782 C 184.844 255.098,178.888 250.860,173.749 247.363 C 155.364 234.855,149.351 228.838,146.140 219.736 L 145.545 218.051 147.997 220.047 C 149.345 221.146,151.986 222.817,153.867 223.762 M252.776 223.034 C 249.060 230.603,243.348 235.920,226.799 247.213 C 221.114 251.092,214.935 255.498,213.068 257.003 L 209.673 259.740 209.395 257.711 C 209.242 256.595,208.790 255.322,208.392 254.881 C 206.555 252.852,209.166 247.271,214.423 241.994 C 220.074 236.320,223.955 234.031,240.640 226.532 C 247.262 223.556,250.551 221.686,252.781 219.628 C 254.905 217.668,254.904 218.698,252.776 223.034 M190.879 225.535 C 190.879 226.591,194.406 228.541,197.097 228.971 C 198.926 229.263,198.956 229.247,198.812 228.049 C 198.680 226.949,198.467 226.813,196.663 226.672 C 195.562 226.586,193.810 226.215,192.770 225.847 C 191.730 225.479,190.879 225.339,190.879 225.535 M197.034 227.358 C 198.023 227.362,198.454 227.549,198.327 227.920 C 198.103 228.577,196.527 228.412,194.661 227.536 C 193.500 226.991,193.471 226.938,194.438 227.131 C 195.050 227.252,196.218 227.354,197.034 227.358 M134.149 241.604 C 137.086 241.842,141.718 242.468,144.442 242.996 L 149.397 243.955 152.905 247.339 C 155.998 250.323,159.352 253.066,162.863 255.482 C 163.741 256.086,163.159 256.016,159.956 255.133 C 138.138 249.116,123.875 246.240,112.125 245.487 L 110.122 245.359 112.257 244.377 C 115.197 243.024,119.214 242.037,123.455 241.625 C 128.565 241.129,128.299 241.130,134.149 241.604 M281.558 242.322 C 283.345 242.685,286.048 243.521,287.565 244.180 L 290.323 245.377 284.240 245.901 C 274.167 246.768,255.052 250.822,239.630 255.360 C 237.934 255.860,236.733 256.113,236.961 255.923 C 237.188 255.734,238.967 254.386,240.913 252.928 C 242.858 251.471,245.872 248.868,247.609 247.144 L 250.768 244.010 255.862 243.017 C 265.615 241.115,274.447 240.876,281.558 242.322 M126.467 248.468 C 140.138 250.790,165.405 257.452,171.746 260.406 C 176.350 262.550,183.411 264.931,187.319 265.657 C 191.451 266.424,191.627 266.965,187.742 266.955 C 185.919 266.951,180.775 267.188,176.312 267.483 C 155.727 268.841,138.229 264.263,121.468 253.135 C 118.409 251.104,114.905 248.865,113.682 248.158 L 111.457 246.873 115.684 247.114 C 118.009 247.246,122.861 247.855,126.467 248.468 M286.775 248.115 C 285.562 248.761,282.060 250.972,278.992 253.030 C 263.640 263.325,245.646 268.568,228.699 267.683 C 225.640 267.523,220.083 267.267,216.352 267.114 C 208.837 266.806,208.059 266.513,212.658 265.724 C 216.591 265.050,224.137 262.531,228.838 260.323 C 235.904 257.005,265.477 249.473,277.864 247.837 C 280.067 247.546,282.169 247.249,282.536 247.176 C 282.903 247.104,284.503 247.021,286.092 246.993 L 288.981 246.941 286.775 248.115 M330.010 252.825 C 329.793 254.442,329.850 254.569,330.696 254.348 C 332.358 253.914,334.285 255.263,340.378 261.127 L 346.385 266.908 344.306 269.009 L 342.227 271.109 336.075 265.260 C 328.693 258.242,329.118 258.322,324.431 263.070 C 319.302 268.266,319.060 267.647,330.290 278.092 L 332.437 280.089 329.691 274.707 C 325.991 267.452,326.076 264.294,329.971 264.294 C 333.488 264.294,333.730 269.274,330.249 270.005 L 328.839 270.300 331.049 274.650 C 333.685 279.836,333.657 279.512,331.672 281.934 C 329.211 284.938,328.755 284.769,321.886 278.292 C 313.692 270.566,313.691 270.512,321.534 262.452 C 326.016 257.845,326.736 256.613,325.603 255.481 C 325.184 255.062,325.542 254.461,327.236 252.742 C 329.687 250.254,330.352 250.273,330.010 252.825 M197.521 254.711 C 199.282 255.622,199.333 255.892,199.333 264.413 C 199.333 273.216,199.007 274.082,195.696 274.082 C 192.445 274.082,192.214 273.446,192.214 264.487 C 192.214 256.335,192.433 255.193,194.134 254.508 C 195.532 253.945,196.105 253.979,197.521 254.711 M207.352 255.731 C 208.149 256.745,208.231 257.552,208.231 264.388 L 208.231 271.926 206.879 273.279 C 205.334 274.823,203.397 274.785,201.790 273.178 C 200.869 272.257,200.327 259.681,201.082 256.766 C 201.734 254.251,205.675 253.600,207.352 255.731 M80.819 261.702 C 90.458 271.258,90.434 270.831,81.793 279.195 C 74.631 286.126,75.458 285.739,73.052 283.287 L 71.170 281.369 77.187 275.411 C 81.236 271.401,83.204 269.137,83.204 268.487 C 83.204 267.351,78.336 261.891,76.456 260.919 C 74.327 259.818,72.802 260.996,74.050 262.778 C 74.651 263.636,74.616 263.675,73.387 263.495 C 72.277 263.332,71.618 263.748,68.856 266.357 C 67.078 268.036,64.874 270.100,63.959 270.942 L 62.295 272.473 60.387 270.335 L 58.478 268.197 62.845 263.966 L 67.212 259.735 69.083 260.034 L 70.954 260.333 69.626 258.940 L 68.298 257.547 69.633 256.473 C 72.579 254.103,73.670 254.613,80.819 261.702 M328.619 265.883 C 327.239 267.262,328.056 269.188,330.021 269.188 C 331.710 269.188,332.410 267.097,331.080 266.021 C 329.823 265.003,329.516 264.986,328.619 265.883 M185.504 269.127 C 181.444 270.859,178.846 272.719,174.194 277.227 L 170.189 281.106 166.649 279.746 L 163.110 278.387 166.276 275.421 C 172.415 269.670,175.174 268.699,187.542 267.932 C 188.031 267.902,187.114 268.439,185.504 269.127 M220.126 268.510 C 225.040 268.873,231.218 272.156,235.563 276.712 C 237.109 278.334,237.081 278.372,233.249 279.872 L 230.256 281.044 226.381 277.344 C 222.208 273.358,217.729 270.241,214.349 268.971 C 211.651 267.957,211.690 267.796,214.572 268.059 C 215.857 268.176,218.356 268.379,220.126 268.510 M190.977 271.079 C 191.156 272.841,191.046 273.074,189.355 274.496 C 186.601 276.814,183.041 280.665,181.253 283.261 L 179.649 285.590 176.810 284.190 C 173.366 282.492,173.348 283.023,176.998 278.500 C 180.484 274.180,184.643 270.826,187.666 269.896 C 190.686 268.967,190.766 268.996,190.977 271.079 M214.405 270.653 C 217.360 272.034,227.243 281.985,226.406 282.737 C 226.321 282.813,225.022 283.492,223.518 284.245 L 220.786 285.615 218.527 282.578 C 217.285 280.907,214.675 278.042,212.728 276.210 C 209.205 272.896,209.189 272.871,209.439 271.012 C 209.725 268.874,210.481 268.820,214.405 270.653 M310.296 275.844 C 311.310 276.229,322.581 288.920,322.581 289.676 C 322.581 290.095,318.755 293.221,318.279 293.192 C 318.075 293.179,315.907 290.760,313.459 287.817 C 306.524 279.474,306.422 279.424,302.741 282.665 C 300.902 284.283,300.712 284.625,300.926 285.942 C 301.252 287.953,297.877 291.156,296.874 289.786 C 294.905 287.094,295.895 285.157,301.694 280.357 C 307.551 275.508,308.333 275.097,310.296 275.844 M96.253 276.723 C 97.900 277.349,109.712 285.939,110.763 287.275 C 112.683 289.716,112.107 291.168,106.025 299.216 C 101.432 305.295,101.017 305.300,92.705 299.382 C 82.468 292.092,81.966 291.148,85.660 286.131 C 88.859 281.786,90.805 281.686,95.142 285.648 C 98.372 288.598,95.256 292.749,91.687 290.249 C 90.432 289.370,88.988 290.627,88.988 292.598 C 88.988 294.042,95.566 298.999,97.483 298.999 C 98.830 298.999,106.340 289.816,106.340 288.169 C 106.340 285.326,97.969 279.962,96.236 281.695 C 95.754 282.177,92.140 280.118,91.419 278.951 C 90.520 277.496,94.029 275.877,96.253 276.723 M90.857 285.740 C 90.070 286.526,90.207 288.078,91.136 288.919 C 92.679 290.315,94.772 289.701,94.772 287.853 C 94.772 285.855,92.154 284.442,90.857 285.740 M291.814 290.434 C 292.532 291.040,301.224 305.326,301.224 305.900 C 301.224 306.547,296.138 308.786,295.831 308.274 C 295.633 307.945,293.712 304.672,291.562 301.001 C 286.701 292.701,286.066 292.570,277.976 298.207 C 275.855 299.685,276.560 302.843,278.698 301.442 C 279.341 301.021,279.867 300.888,279.867 301.146 C 279.867 301.405,279.666 301.740,279.422 301.891 C 278.490 302.467,279.075 304.081,282.091 309.263 C 283.804 312.207,285.205 314.755,285.204 314.927 C 285.202 315.325,280.400 317.930,280.161 317.663 C 280.063 317.554,278.733 315.310,277.205 312.678 C 274.410 307.863,274.190 306.989,275.186 304.655 C 275.491 303.941,275.363 303.955,273.940 304.795 L 272.355 305.730 271.661 304.389 C 269.836 300.858,270.758 299.633,278.754 294.964 C 288.381 289.343,289.898 288.817,291.814 290.434 M117.660 301.894 C 116.582 306.542,115.696 310.461,115.692 310.602 C 115.688 310.744,116.699 311.335,117.939 311.916 C 120.896 313.301,121.126 313.128,124.214 307.208 L 126.737 302.371 125.476 301.760 C 122.941 300.533,122.863 296.445,125.372 296.278 C 128.823 296.048,133.482 298.973,133.482 301.370 C 133.482 303.994,125.643 317.241,124.092 317.241 C 121.701 317.241,112.500 311.901,112.752 310.659 C 112.887 309.997,113.513 306.357,114.144 302.570 C 114.774 298.783,115.329 295.647,115.376 295.600 C 115.638 295.338,119.450 293.272,119.527 293.350 C 119.578 293.401,118.738 297.246,117.660 301.894 M125.393 298.775 C 124.975 299.692,125.027 300.040,125.694 300.777 C 127.115 302.348,129.922 301.720,129.922 299.832 C 129.922 297.644,126.293 296.798,125.393 298.775 M161.877 299.684 C 164.486 300.458,164.411 300.292,163.511 303.324 L 162.839 305.586 160.285 304.926 C 157.035 304.087,157.050 304.110,157.844 301.335 C 158.587 298.737,158.631 298.720,161.877 299.684 M263.576 303.429 C 264.989 303.966,270.254 316.086,271.059 320.652 C 271.263 321.806,266.153 323.731,265.719 322.665 C 265.551 322.251,264.210 318.726,262.740 314.832 C 261.270 310.937,259.725 307.539,259.307 307.282 C 257.502 306.170,252.169 308.617,251.922 310.671 C 251.779 311.858,248.374 313.625,247.397 313.021 C 245.513 311.857,247.872 307.725,251.008 306.697 C 251.830 306.428,254.505 305.491,256.952 304.615 C 261.896 302.846,261.995 302.828,263.576 303.429 M146.394 304.752 C 152.876 306.769,153.179 311.061,147.057 314.127 C 140.432 317.444,140.836 323.298,147.748 324.154 C 150.548 324.501,150.578 324.456,153.221 315.977 C 154.536 311.761,155.736 308.187,155.889 308.033 C 156.094 307.829,161.526 309.163,161.510 309.414 C 161.396 311.200,155.987 326.550,155.265 327.134 C 152.769 329.156,137.869 324.763,136.567 321.621 C 134.932 317.672,138.151 313.237,142.652 313.237 C 146.246 313.237,148.519 310.543,147.450 307.550 C 146.692 305.430,145.087 305.414,145.171 307.527 C 145.308 310.967,141.385 312.310,138.787 309.712 C 137.318 308.243,137.201 307.514,138.144 305.691 C 139.211 303.628,141.827 303.330,146.394 304.752 M139.980 305.806 C 137.950 307.291,140.498 310.885,142.599 309.499 C 144.478 308.259,143.691 305.228,141.491 305.228 C 141.095 305.228,140.415 305.488,139.980 305.806 M238.434 311.505 C 240.411 312.195,240.924 313.468,242.280 321.049 C 244.027 330.811,244.121 330.699,232.460 332.805 C 223.137 334.489,222.303 334.497,220.736 332.925 C 218.993 331.178,217.968 325.407,219.095 323.687 C 220.525 321.506,226.561 320.443,228.202 322.084 C 229.922 323.804,228.617 327.030,226.200 327.030 C 224.244 327.030,224.749 330.363,226.783 330.874 C 228.205 331.230,235.608 329.983,236.510 329.234 C 237.726 328.225,236.062 316.456,234.473 314.829 C 232.864 313.182,223.359 315.407,223.359 317.431 C 223.359 318.557,222.988 318.722,219.244 319.262 L 217.130 319.567 217.130 318.148 C 217.130 316.536,219.001 314.342,220.744 313.910 C 221.895 313.624,235.732 311.120,236.530 311.053 C 236.799 311.031,237.656 311.234,238.434 311.505 M175.990 312.294 C 183.762 313.396,185.095 314.124,185.095 317.272 C 185.095 318.434,183.705 329.072,183.079 332.704 L 182.829 334.152 180.291 333.871 C 176.799 333.485,176.886 333.862,178.167 324.765 C 179.497 315.321,179.480 315.256,175.503 314.662 C 172.478 314.210,171.333 314.460,170.771 315.695 C 170.126 317.110,165.517 316.594,165.517 315.107 C 165.517 311.736,167.774 311.130,175.990 312.294 M210.337 315.035 C 212.446 316.374,213.295 331.408,211.394 333.755 C 210.138 335.306,204.568 335.567,202.781 334.159 C 200.433 332.309,201.790 329.255,204.959 329.255 L 206.582 329.255 206.267 323.595 C 205.884 316.705,205.949 316.796,201.474 316.796 C 197.587 316.796,196.218 317.264,196.218 318.592 C 196.218 319.371,195.904 319.466,193.326 319.466 C 190.132 319.466,189.876 319.165,191.085 316.828 C 191.966 315.125,192.648 314.883,197.553 314.536 C 203.840 314.091,209.177 314.299,210.337 315.035 M223.804 322.710 C 221.807 323.716,222.268 326.585,224.427 326.585 C 224.954 326.585,225.831 326.273,226.375 325.892 C 228.715 324.253,226.408 321.397,223.804 322.710 M204.227 330.590 C 202.283 332.533,204.833 335.046,207.371 333.688 C 207.921 333.394,208.231 332.758,208.231 331.924 C 208.231 329.775,205.839 328.977,204.227 330.590 " stroke="none" fill="#000000" fill-rule="evenodd"></path></g></svg>